# xmcd
#
# Track frame offsets:
#	150
#	11765
#	20664
#	33105
#	41321
#	51772
#	64626
#	77960
#	90741
#	100158
#	111510
#	120969
#	131349
#	145386
#	155314
#	167671
#	184675
#	193964
#	204245
#	218145
#	239955
#
# Disc length: 3303 seconds
#
# Revision: 1
# Processed by: cddbd v1.5.1PL0 Copyright (c) Steve Scherf et al.
# Submitted via: audiograbber 1.81.03
#
DISCID=220ce515
DTITLE=Willie Nelson - Broken promises
DYEAR=1997
DGENRE=Country
TTITLE0=Night Life
TTITLE1=Why are you picking on me
TTITLE2=Shelter of my arms
TTITLE3=You wouldn't even cross the street to say goodbye
TTITLE4=Balme it on the times
TTITLE5=I just don't understand
TTITLE6=You'll always have someone
TTITLE7=Any old arms won't do
TTITLE8=Right from wrong
TTITLE9=Suffering in silence
TTITLE10=One step beyond
TTITLE11=Broken promises
TTITLE12=No tomorrow in sight
TTITLE13=I didn't sleep a wink
TTITLE14=I can't find the time
TTITLE15=I let my mind wander
TTITLE16=Waiting time
TTITLE17=A new way to cry
TTITLE18=Home is where you're happy
TTITLE19=I feel sorry for him
TTITLE20=Willpc.exe
EXTD=1997 Century Records. 
EXTT0=(Nelson) Tree Music
EXTT1=
EXTT2=
EXTT3=
EXTT4=
EXTT5=
EXTT6=
EXTT7=
EXTT8=
EXTT9=
EXTT10=
EXTT11=
EXTT12=
EXTT13=
EXTT14=
EXTT15=
EXTT16=
EXTT17=
EXTT18=
EXTT19=
EXTT20=
PLAYORDER=
